***************************************************************
 
http://www.torrentforce.org/imghost/3/greyshadow_tfbanner.png

***************************************************************
 
http://www.torrentforce.org/imghost/4/greyshadow_winwin.jpg

***************************************************************

FILM TITLE: Win Win (2011)

***************************************************************

Genre: Comedy | Drama   

Release: 20 May 2011 (UK)

Country: USA

Language: English

Plot:
A struggling lawyer and volunteer wrestling coach's chicanery comes 
back to haunt him when the teenage grandson of the client he's 
double-crossed comes into his life.

IMDB Rating: 7/10 (6,944 votes)
 
http://www.imdb.com/title/tt1606392/ 

****************************************************************
 
http://www.torrentforce.org/imghost/4/greyshadow_winwinx2641.png 
http://www.torrentforce.org/imghost/4/greyshadow_winwinx2642.png 
http://www.torrentforce.org/imghost/4/greyshadow_winwinx2643.png 
http://www.torrentforce.org/imghost/4/greyshadow_winwinx2644.png

****************************************************************

[IMG]http://www.torrentforce.org/imghost/2/greyshadow_mediainfo.png[/IMG]
General
Complete name                    : Win Win 2011 720p BRRip x264 (mkv) [TFRG].mkv
Format                           : Matroska
Format version                   : Version 2
File size                        : 2.70 GiB
Duration                         : 1h 46mn
Overall bit rate                 : 3647 Kbps
Encoded date                     : UTC 2011-09-15 02:36:57
Writing application              : mkvmerge v4.9.1 ('Ich will') built on Jul 11 2011 23:53:15
Writing library                  : libebml v1.2.1 + libmatroska v1.1.1

Video
ID                               : 1
Format                           : AVC
Format/Info                      : Advanced Video Codec
Format profile                   : High@L4.1
Format settings, CABAC           : Yes
Format settings, ReFrames        : 8 frames
Codec ID                         : V_MPEG4/ISO/AVC
Duration                         : 1h 46mn
Bit rate                         : 3200 Kbps
Width                            : 1280 pixels
Height                           : 688 pixels
Display aspect ratio             : 1.860
Frame rate                       : 23.976 fps
Color space                      : YUV
Chroma subsampling               : 4:2:0
Bit depth                        : 8 bits
Scan type                        : Progressive
Bits/(Pixel*Frame)               : 0.152
Stream size                      : 2.32 GiB (86%)
Title                            : AVC MPEG4 Video
Writing library                  : x264 core 116 r2074 2641b9e
Language                         : English
Color primaries                  : BT.709-5, BT.1361, IEC 61966-2-4, SMPTE RP177
Transfer characteristics         : BT.709-5, BT.1361
Matrix coefficients              : BT.709-5, BT.1361, IEC 61966-2-4 709, SMPTE RP177

Audio
ID                               : 2
Format                           : AC-3
Format/Info                      : Audio Coding 3
Mode extension                   : CM (complete main)
Codec ID                         : A_AC3
Duration                         : 1h 46mn
Bit rate mode                    : Constant
Bit rate                         : 448 Kbps
Channel(s)                       : 6 channels
Channel positions                : Front: L C R, Side: L R, LFE
Sampling rate                    : 48.0 KHz
Bit depth                        : 16 bits
Compression mode                 : Lossy
Stream size                      : 340 MiB (12%)
Title                            : AC3 5.1 Audio
Language                         : English

Text #1
ID                               : 3
Format                           : UTF-8
Codec ID                         : S_TEXT/UTF8
Codec ID/Info                    : UTF-8 Plain Text
Title                            : English Subtitle sup to srt
Language                         : English

Text #2
ID                               : 4
Format                           : UTF-8
Codec ID                         : S_TEXT/UTF8
Codec ID/Info                    : UTF-8 Plain Text
Title                            : Spanish Subtitle sup to srt
Language                         : Spanish

****************************************************************

Video Source: Win Win 2011 BluRay 1080p AVC DTS-HD MA5.1-CHDBits (31.1GB)

Thanks: (chdbits.org)

****************************************************************

I provide a small sample, so please download this to check your 
compatibility first if you are unsure.

****************************************************************

A big thanks to all the sites out there who care and share and
who make it possible for you to download this torrent for free.

Greetz to Ripwyn, mustang, noir, Blackjesus and all the other 
outstanding members of our community of file sharers, and a 
special mention to our friends at 1337x.  

****************************************************************
